<?xml version="1.0" standalone="no"?><svg xmlns="http://www.w3.org/2000/svg" viewBox="0 0 1440 320"><path fill="#0099ff" fill-opacity="1" d="M0,288L14.1,293.3C28.2,299,56,309,85,272C112.9,235,141,149,169,138.7C197.6,128,226,192,254,186.7C282.4,181,311,107,339,112C367.1,117,395,203,424,229.3C451.8,256,480,224,508,208C536.5,192,565,192,593,202.7C621.2,213,649,235,678,240C705.9,245,734,235,762,197.3C790.6,160,819,96,847,101.3C875.3,107,904,181,932,229.3C960,277,988,299,1016,293.3C1044.7,288,1073,256,1101,224C1129.4,192,1158,160,1186,170.7C1214.1,181,1242,235,1271,224C1298.8,213,1327,139,1355,101.3C1383.5,64,1412,64,1426,64L1440,64L1440,0L1425.9,0C1411.8,0,1384,0,1355,0C1327.1,0,1299,0,1271,0C1242.4,0,1214,0,1186,0C1157.6,0,1129,0,1101,0C1072.9,0,1045,0,1016,0C988.2,0,960,0,932,0C903.5,0,875,0,847,0C818.8,0,791,0,762,0C734.1,0,706,0,678,0C649.4,0,621,0,593,0C564.7,0,536,0,508,0C480,0,452,0,424,0C395.3,0,367,0,339,0C310.6,0,282,0,254,0C225.9,0,198,0,169,0C141.2,0,113,0,85,0C56.5,0,28,0,14,0L0,0Z"></path></svg>